<svg id="SvgjsSvg1006" width="890.5000610351562" height="750.9999847412109" xmlns="http://www.w3.org/2000/svg" version="1.1" xmlns:xlink="http://www.w3.org/1999/xlink" xmlns:svgjs="http://svgjs.com/svgjs"><defs id="SvgjsDefs1007"><pattern patternUnits="userSpaceOnUse" id="pattern_mark_0" width="300" height="300"><text x="150" y="100" fill="rgba(229,229,229,0.8)" font-size="18" transform="rotate(-45, 150, 150)" style="dominant-baseline: middle; text-anchor: middle;"></text></pattern><pattern patternUnits="userSpaceOnUse" id="pattern_mark_1" width="300" height="300"><text x="150" y="200" fill="rgba(229,229,229,0.8)" font-size="18" transform="rotate(-45, 150, 150)" style="dominant-baseline: middle; text-anchor: middle;"></text></pattern><marker id="SvgjsMarker1031" markerWidth="13" markerHeight="9" refX="9.5" refY="4.5" viewBox="0 0 13 9" orient="auto" markerUnits="userSpaceOnUse" stroke-dasharray="0,0"><path id="SvgjsPath1032" d="M0,0 L13,4.5 L0,9 L0,0" fill="#323232" stroke="#323232" stroke-width="1"></path></marker><marker id="SvgjsMarker1047" markerWidth="13" markerHeight="9" refX="9.5" refY="4.5" viewBox="0 0 13 9" orient="auto" markerUnits="userSpaceOnUse" stroke-dasharray="0,0"><path id="SvgjsPath1048" d="M0,0 L13,4.5 L0,9 L0,0" fill="#323232" stroke="#323232" stroke-width="1"></path></marker><marker id="SvgjsMarker1051" markerWidth="13" markerHeight="9" refX="9.5" refY="4.5" viewBox="0 0 13 9" orient="auto" markerUnits="userSpaceOnUse" stroke-dasharray="0,0"><path id="SvgjsPath1052" d="M0,0 L13,4.5 L0,9 L0,0" fill="#323232" stroke="#323232" stroke-width="1"></path></marker><marker id="SvgjsMarker1073" markerWidth="13" markerHeight="9" refX="9.5" refY="4.5" viewBox="0 0 13 9" orient="auto" markerUnits="userSpaceOnUse" stroke-dasharray="0,0"><path id="SvgjsPath1074" d="M0,0 L13,4.5 L0,9 L0,0" fill="#323232" stroke="#323232" stroke-width="1"></path></marker><marker id="SvgjsMarker1083" markerWidth="13" markerHeight="9" refX="9.5" refY="4.5" viewBox="0 0 13 9" orient="auto" markerUnits="userSpaceOnUse" stroke-dasharray="0,0"><path id="SvgjsPath1084" d="M0,0 L13,4.5 L0,9 L0,0" fill="#323232" stroke="#323232" stroke-width="1"></path></marker><marker id="SvgjsMarker1087" markerWidth="13" markerHeight="9" refX="9.5" refY="4.5" viewBox="0 0 13 9" orient="auto" markerUnits="userSpaceOnUse" stroke-dasharray="0,0"><path id="SvgjsPath1088" d="M0,0 L13,4.5 L0,9 L0,0" fill="#323232" stroke="#323232" stroke-width="1"></path></marker><marker id="SvgjsMarker1091" markerWidth="13" markerHeight="9" refX="9.5" refY="4.5" viewBox="0 0 13 9" orient="auto" markerUnits="userSpaceOnUse" stroke-dasharray="0,0"><path id="SvgjsPath1092" d="M0,0 L13,4.5 L0,9 L0,0" fill="#323232" stroke="#323232" stroke-width="1"></path></marker><marker id="SvgjsMarker1107" markerWidth="13" markerHeight="9" refX="9.5" refY="4.5" viewBox="0 0 13 9" orient="auto" markerUnits="userSpaceOnUse" stroke-dasharray="0,0"><path id="SvgjsPath1108" d="M0,0 L13,4.5 L0,9 L0,0" fill="#323232" stroke="#323232" stroke-width="1"></path></marker><marker id="SvgjsMarker1111" markerWidth="13" markerHeight="9" refX="9.5" refY="4.5" viewBox="0 0 13 9" orient="auto" markerUnits="userSpaceOnUse" stroke-dasharray="0,0"><path id="SvgjsPath1112" d="M0,0 L13,4.5 L0,9 L0,0" fill="#323232" stroke="#323232" stroke-width="1"></path></marker><marker id="SvgjsMarker1127" markerWidth="13" markerHeight="9" refX="9.5" refY="4.5" viewBox="0 0 13 9" orient="auto" markerUnits="userSpaceOnUse" stroke-dasharray="0,0"><path id="SvgjsPath1128" d="M0,0 L13,4.5 L0,9 L0,0" fill="#323232" stroke="#323232" stroke-width="1"></path></marker><marker id="SvgjsMarker1131" markerWidth="13" markerHeight="9" refX="9.5" refY="4.5" viewBox="0 0 13 9" orient="auto" markerUnits="userSpaceOnUse" stroke-dasharray="0,0"><path id="SvgjsPath1132" d="M0,0 L13,4.5 L0,9 L0,0" fill="#323232" stroke="#323232" stroke-width="1"></path></marker><marker id="SvgjsMarker1141" markerWidth="13" markerHeight="9" refX="9.5" refY="4.5" viewBox="0 0 13 9" orient="auto" markerUnits="userSpaceOnUse" stroke-dasharray="0,0"><path id="SvgjsPath1142" d="M0,0 L13,4.5 L0,9 L0,0" fill="#323232" stroke="#323232" stroke-width="1"></path></marker><marker id="SvgjsMarker1151" markerWidth="13" markerHeight="9" refX="9.5" refY="4.5" viewBox="0 0 13 9" orient="auto" markerUnits="userSpaceOnUse" stroke-dasharray="0,0"><path id="SvgjsPath1152" d="M0,0 L13,4.5 L0,9 L0,0" fill="#323232" stroke="#323232" stroke-width="1"></path></marker><marker id="SvgjsMarker1161" markerWidth="13" markerHeight="9" refX="9.5" refY="4.5" viewBox="0 0 13 9" orient="auto" markerUnits="userSpaceOnUse" stroke-dasharray="0,0"><path id="SvgjsPath1162" d="M0,0 L13,4.5 L0,9 L0,0" fill="#323232" stroke="#323232" stroke-width="1"></path></marker><marker id="SvgjsMarker1171" markerWidth="13" markerHeight="9" refX="9.5" refY="4.5" viewBox="0 0 13 9" orient="auto" markerUnits="userSpaceOnUse" stroke-dasharray="0,0"><path id="SvgjsPath1172" d="M0,0 L13,4.5 L0,9 L0,0" fill="#323232" stroke="#323232" stroke-width="1"></path></marker><marker id="SvgjsMarker1181" markerWidth="13" markerHeight="9" refX="9.5" refY="4.5" viewBox="0 0 13 9" orient="auto" markerUnits="userSpaceOnUse" stroke-dasharray="0,0"><path id="SvgjsPath1182" d="M0,0 L13,4.5 L0,9 L0,0" fill="#323232" stroke="#323232" stroke-width="1"></path></marker><marker id="SvgjsMarker1191" markerWidth="13" markerHeight="9" refX="9.5" refY="4.5" viewBox="0 0 13 9" orient="auto" markerUnits="userSpaceOnUse" stroke-dasharray="0,0"><path id="SvgjsPath1192" d="M0,0 L13,4.5 L0,9 L0,0" fill="#323232" stroke="#323232" stroke-width="1"></path></marker><marker id="SvgjsMarker1207" markerWidth="13" markerHeight="9" refX="9.5" refY="4.5" viewBox="0 0 13 9" orient="auto" markerUnits="userSpaceOnUse" stroke-dasharray="0,0"><path id="SvgjsPath1208" d="M0,0 L13,4.5 L0,9 L0,0" fill="#323232" stroke="#323232" stroke-width="1"></path></marker><marker id="SvgjsMarker1211" markerWidth="13" markerHeight="9" refX="9.5" refY="4.5" viewBox="0 0 13 9" orient="auto" markerUnits="userSpaceOnUse" stroke-dasharray="0,0"><path id="SvgjsPath1212" d="M0,0 L13,4.5 L0,9 L0,0" fill="#323232" stroke="#323232" stroke-width="1"></path></marker><marker id="SvgjsMarker1221" markerWidth="13" markerHeight="9" refX="9.5" refY="4.5" viewBox="0 0 13 9" orient="auto" markerUnits="userSpaceOnUse" stroke-dasharray="0,0"><path id="SvgjsPath1222" d="M0,0 L13,4.5 L0,9 L0,0" fill="#323232" stroke="#323232" stroke-width="1"></path></marker><marker id="SvgjsMarker1231" markerWidth="13" markerHeight="9" refX="9.5" refY="4.5" viewBox="0 0 13 9" orient="auto" markerUnits="userSpaceOnUse" stroke-dasharray="0,0"><path id="SvgjsPath1232" d="M0,0 L13,4.5 L0,9 L0,0" fill="#323232" stroke="#323232" stroke-width="1"></path></marker></defs><rect id="svgbackgroundid" width="890.5000610351562" height="750.9999847412109" fill="transparent"></rect><rect id="SvgjsRect1009" width="890.5000610351562" height="750.9999847412109" fill="url(#pattern_mark_0)"></rect><rect id="SvgjsRect1010" width="890.5000610351562" height="750.9999847412109" fill="url(#pattern_mark_1)"></rect><g id="SvgjsG1011" transform="translate(406.4999771118164,68.99998474121094)"><path id="SvgjsPath1012" d="M 16.8 40.320004272460935C -14 28.800003051757812 5.6000000000000005 20.160002136230467 12.6 17.280001831054687C 9.8 2.8800003051757814 44.800000000000004 0 58.8 5.760000610351563C 70 -2.8800003051757814 105 0 105 8.640000915527343C 133 5.760000610351563 144.20000000000002 17.280001831054687 133 31.680003356933597C 142.8 43.20000457763672 133 57.600006103515625 100.8 51.840005493164064C 93.80000000000001 59.3280062866211 65.8 59.3280062866211 58.8 51.840005493164064C 44.800000000000004 57.600006103515625 16.8 54.72000579833984 16.8 40.320004272460935Z" stroke="rgba(33,41,48,1)" stroke-width="1.5" fill-opacity="1" fill="#ffffff"></path><g id="SvgjsG1013"><text id="SvgjsText1014" font-family="&quot;Comic Sans MS&quot;" text-anchor="middle" font-size="16px" width="120px" fill="#323232" font-weight="400" align="middle" lineHeight="125%" anchor="middle" family="&quot;Comic Sans MS&quot;" size="16px" weight="400" font-style="" opacity="1" y="14.800003051757812" transform="rotate(0)"><tspan id="SvgjsTspan1015" dy="20" x="70"><tspan id="SvgjsTspan1016" style="text-decoration:;">"", 3, 3</tspan></tspan></text></g></g><g id="SvgjsG1017" transform="translate(426.4999771118164,24.99999237060547)"><path id="SvgjsPath1018" d="M 0 0L 100 0L 100 40L 0 40Z" stroke="none" fill="none"></path><g id="SvgjsG1019"><text id="SvgjsText1020" font-family="&quot;Comic Sans MS&quot;" text-anchor="middle" font-size="18px" width="100px" fill="#323232" font-weight="400" align="middle" lineHeight="125%" anchor="middle" family="&quot;Comic Sans MS&quot;" size="18px" weight="400" font-style="" opacity="1" y="4.25" transform="rotate(0)"><tspan id="SvgjsTspan1021" dy="22" x="50"><tspan id="SvgjsTspan1022" style="text-decoration:;">n=3</tspan></tspan></text></g></g><g id="SvgjsG1023" transform="translate(401.4999771118164,165.99998474121094)"><path id="SvgjsPath1024" d="M 16.8 40.320004272460935C -14 28.800003051757812 5.6000000000000005 20.160002136230467 12.6 17.280001831054687C 9.8 2.8800003051757814 44.800000000000004 0 58.8 5.760000610351563C 70 -2.8800003051757814 105 0 105 8.640000915527343C 133 5.760000610351563 144.20000000000002 17.280001831054687 133 31.680003356933597C 142.8 43.20000457763672 133 57.600006103515625 100.8 51.840005493164064C 93.80000000000001 59.3280062866211 65.8 59.3280062866211 58.8 51.840005493164064C 44.800000000000004 57.600006103515625 16.8 54.72000579833984 16.8 40.320004272460935Z" stroke="rgba(33,41,48,1)" stroke-width="1.5" fill-opacity="1" fill="#ffffff"></path><g id="SvgjsG1025"><text id="SvgjsText1026" font-family="&quot;Comic Sans MS&quot;" text-anchor="middle" font-size="16px" width="120px" fill="#323232" font-weight="400" align="middle" lineHeight="125%" anchor="middle" family="&quot;Comic Sans MS&quot;" size="16px" weight="400" font-style="" opacity="1" y="14.800003051757812" transform="rotate(0)"><tspan id="SvgjsTspan1027" dy="20" x="70"><tspan id="SvgjsTspan1028" style="text-decoration:;">"(", 2, 3</tspan></tspan></text></g></g><g id="SvgjsG1029"><path id="SvgjsPath1030" d="M486.28497110864987 127.34984070961218L485.5539987232156 163.8765252886579" stroke="#323232" stroke-width="1.5" fill="none" marker-end="url(#SvgjsMarker1031)"></path></g><g id="SvgjsG1033" transform="translate(223.4999771118164,262.99998474121094)"><path id="SvgjsPath1034" d="M 16.8 40.320004272460935C -14 28.800003051757812 5.6000000000000005 20.160002136230467 12.6 17.280001831054687C 9.8 2.8800003051757814 44.800000000000004 0 58.8 5.760000610351563C 70 -2.8800003051757814 105 0 105 8.640000915527343C 133 5.760000610351563 144.20000000000002 17.280001831054687 133 31.680003356933597C 142.8 43.20000457763672 133 57.600006103515625 100.8 51.840005493164064C 93.80000000000001 59.3280062866211 65.8 59.3280062866211 58.8 51.840005493164064C 44.800000000000004 57.600006103515625 16.8 54.72000579833984 16.8 40.320004272460935Z" stroke="rgba(33,41,48,1)" stroke-width="1.5" fill-opacity="1" fill="#ffffff"></path><g id="SvgjsG1035"><text id="SvgjsText1036" font-family="&quot;Comic Sans MS&quot;" text-anchor="middle" font-size="16px" width="120px" fill="#323232" font-weight="400" align="middle" lineHeight="125%" anchor="middle" family="&quot;Comic Sans MS&quot;" size="16px" weight="400" font-style="" opacity="1" y="14.800003051757812" transform="rotate(0)"><tspan id="SvgjsTspan1037" dy="20" x="70"><tspan id="SvgjsTspan1038" style="text-decoration:;">"((", 1, 3</tspan></tspan></text></g></g><g id="SvgjsG1039" transform="translate(651.4999771118164,262.99998474121094)"><path id="SvgjsPath1040" d="M 16.8 40.320004272460935C -14 28.800003051757812 5.6000000000000005 20.160002136230467 12.6 17.280001831054687C 9.8 2.8800003051757814 44.800000000000004 0 58.8 5.760000610351563C 70 -2.8800003051757814 105 0 105 8.640000915527343C 133 5.760000610351563 144.20000000000002 17.280001831054687 133 31.680003356933597C 142.8 43.20000457763672 133 57.600006103515625 100.8 51.840005493164064C 93.80000000000001 59.3280062866211 65.8 59.3280062866211 58.8 51.840005493164064C 44.800000000000004 57.600006103515625 16.8 54.72000579833984 16.8 40.320004272460935Z" stroke="rgba(33,41,48,1)" stroke-width="1.5" fill-opacity="1" fill="#ffffff"></path><g id="SvgjsG1041"><text id="SvgjsText1042" font-family="&quot;Comic Sans MS&quot;" text-anchor="middle" font-size="16px" width="120px" fill="#323232" font-weight="400" align="middle" lineHeight="125%" anchor="middle" family="&quot;Comic Sans MS&quot;" size="16px" weight="400" font-style="" opacity="1" y="14.800003051757812" transform="rotate(0)"><tspan id="SvgjsTspan1043" dy="20" x="70"><tspan id="SvgjsTspan1044" style="text-decoration:;">"()", 2, 2</tspan></tspan></text></g></g><g id="SvgjsG1045"><path id="SvgjsPath1046" d="M480.56906255367915 223.76810957867107L310.1312695211103 262.97075736004587" stroke="#323232" stroke-width="1.5" fill="none" marker-end="url(#SvgjsMarker1047)"></path></g><g id="SvgjsG1049"><path id="SvgjsPath1050" d="M482.0408714166705 223.7165053461192L732.8327576143417 263.1565325972326" stroke="#323232" stroke-width="1.5" fill="none" marker-end="url(#SvgjsMarker1051)"></path></g><g id="SvgjsG1053" transform="translate(83.4999771118164,361.99998474121094)"><path id="SvgjsPath1054" d="M 16.8 40.320004272460935C -14 28.800003051757812 5.6000000000000005 20.160002136230467 12.6 17.280001831054687C 9.8 2.8800003051757814 44.800000000000004 0 58.8 5.760000610351563C 70 -2.8800003051757814 105 0 105 8.640000915527343C 133 5.760000610351563 144.20000000000002 17.280001831054687 133 31.680003356933597C 142.8 43.20000457763672 133 57.600006103515625 100.8 51.840005493164064C 93.80000000000001 59.3280062866211 65.8 59.3280062866211 58.8 51.840005493164064C 44.800000000000004 57.600006103515625 16.8 54.72000579833984 16.8 40.320004272460935Z" stroke="rgba(33,41,48,1)" stroke-width="1.5" fill-opacity="1" fill="#ffffff"></path><g id="SvgjsG1055"><text id="SvgjsText1056" font-family="&quot;Comic Sans MS&quot;" text-anchor="middle" font-size="16px" width="120px" fill="#323232" font-weight="400" align="middle" lineHeight="125%" anchor="middle" family="&quot;Comic Sans MS&quot;" size="16px" weight="400" font-style="" opacity="1" y="14.800003051757812" transform="rotate(0)"><tspan id="SvgjsTspan1057" dy="20" x="70"><tspan id="SvgjsTspan1058" style="text-decoration:;">"(((", 0, 3</tspan></tspan></text></g></g><g id="SvgjsG1059" transform="translate(321.4999771118164,361.99998474121094)"><path id="SvgjsPath1060" d="M 16.8 40.320004272460935C -14 28.800003051757812 5.6000000000000005 20.160002136230467 12.6 17.280001831054687C 9.8 2.8800003051757814 44.800000000000004 0 58.8 5.760000610351563C 70 -2.8800003051757814 105 0 105 8.640000915527343C 133 5.760000610351563 144.20000000000002 17.280001831054687 133 31.680003356933597C 142.8 43.20000457763672 133 57.600006103515625 100.8 51.840005493164064C 93.80000000000001 59.3280062866211 65.8 59.3280062866211 58.8 51.840005493164064C 44.800000000000004 57.600006103515625 16.8 54.72000579833984 16.8 40.320004272460935Z" stroke="rgba(33,41,48,1)" stroke-width="1.5" fill-opacity="1" fill="#ffffff"></path><g id="SvgjsG1061"><text id="SvgjsText1062" font-family="&quot;Comic Sans MS&quot;" text-anchor="middle" font-size="16px" width="120px" fill="#323232" font-weight="400" align="middle" lineHeight="125%" anchor="middle" family="&quot;Comic Sans MS&quot;" size="16px" weight="400" font-style="" opacity="1" y="14.800003051757812" transform="rotate(0)"><tspan id="SvgjsTspan1063" dy="20" x="70"><tspan id="SvgjsTspan1064" style="text-decoration:;">"(()", 1, 2</tspan></tspan></text></g></g><g id="SvgjsG1065" transform="translate(647.4999771118164,361.99998474121094)"><path id="SvgjsPath1066" d="M 16.8 40.320004272460935C -14 28.800003051757812 5.6000000000000005 20.160002136230467 12.6 17.280001831054687C 9.8 2.8800003051757814 44.800000000000004 0 58.8 5.760000610351563C 70 -2.8800003051757814 105 0 105 8.640000915527343C 133 5.760000610351563 144.20000000000002 17.280001831054687 133 31.680003356933597C 142.8 43.20000457763672 133 57.600006103515625 100.8 51.840005493164064C 93.80000000000001 59.3280062866211 65.8 59.3280062866211 58.8 51.840005493164064C 44.800000000000004 57.600006103515625 16.8 54.72000579833984 16.8 40.320004272460935Z" stroke="rgba(33,41,48,1)" stroke-width="1.5" fill-opacity="1" fill="#ffffff"></path><g id="SvgjsG1067"><text id="SvgjsText1068" font-family="&quot;Comic Sans MS&quot;" text-anchor="middle" font-size="16px" width="120px" fill="#323232" font-weight="400" align="middle" lineHeight="125%" anchor="middle" family="&quot;Comic Sans MS&quot;" size="16px" weight="400" font-style="" opacity="1" y="14.800003051757812" transform="rotate(0)"><tspan id="SvgjsTspan1069" dy="20" x="70"><tspan id="SvgjsTspan1070" style="text-decoration:;">"()(", 1, 2</tspan></tspan></text></g></g><g id="SvgjsG1071"><path id="SvgjsPath1072" d="M731.303550542324 321.34998233174116L731.4871127619883 359.8760154489934" stroke="#323232" stroke-width="1.5" fill="none" marker-end="url(#SvgjsMarker1073)"></path></g><g id="SvgjsG1075" transform="translate(78.4999771118164,460.99998474121094)"><path id="SvgjsPath1076" d="M 16.8 40.320004272460935C -14 28.800003051757812 5.6000000000000005 20.160002136230467 12.6 17.280001831054687C 9.8 2.8800003051757814 44.800000000000004 0 58.8 5.760000610351563C 70 -2.8800003051757814 105 0 105 8.640000915527343C 133 5.760000610351563 144.20000000000002 17.280001831054687 133 31.680003356933597C 142.8 43.20000457763672 133 57.600006103515625 100.8 51.840005493164064C 93.80000000000001 59.3280062866211 65.8 59.3280062866211 58.8 51.840005493164064C 44.800000000000004 57.600006103515625 16.8 54.72000579833984 16.8 40.320004272460935Z" stroke="rgba(33,41,48,1)" stroke-width="1.5" fill-opacity="1" fill="#ffffff"></path><g id="SvgjsG1077"><text id="SvgjsText1078" font-family="&quot;Comic Sans MS&quot;" text-anchor="middle" font-size="16px" width="120px" fill="#323232" font-weight="400" align="middle" lineHeight="125%" anchor="middle" family="&quot;Comic Sans MS&quot;" size="16px" weight="400" font-style="" opacity="1" y="14.800003051757812" transform="rotate(0)"><tspan id="SvgjsTspan1079" dy="20" x="70"><tspan id="SvgjsTspan1080" style="text-decoration:;">"((()", 0, 2</tspan></tspan></text></g></g><g id="SvgjsG1081"><path id="SvgjsPath1082" d="M302.5834272874923 320.82147752437373L170.0795564793831 361.7786327555162" stroke="#323232" stroke-width="1.5" fill="none" marker-end="url(#SvgjsMarker1083)"></path></g><g id="SvgjsG1085"><path id="SvgjsPath1086" d="M303.99373960436833 320.884935758575L403.0024321386294 361.55018311239155" stroke="#323232" stroke-width="1.5" fill="none" marker-end="url(#SvgjsMarker1087)"></path></g><g id="SvgjsG1089"><path id="SvgjsPath1090" d="M163.28568582279496 420.3498546717366L162.55142575229348 458.87647502501" stroke="#323232" stroke-width="1.5" fill="none" marker-end="url(#SvgjsMarker1091)"></path></g><g id="SvgjsG1093" transform="translate(233.4999771118164,460.99998474121094)"><path id="SvgjsPath1094" d="M 16.8 40.320004272460935C -14 28.800003051757812 5.6000000000000005 20.160002136230467 12.6 17.280001831054687C 9.8 2.8800003051757814 44.800000000000004 0 58.8 5.760000610351563C 70 -2.8800003051757814 105 0 105 8.640000915527343C 133 5.760000610351563 144.20000000000002 17.280001831054687 133 31.680003356933597C 142.8 43.20000457763672 133 57.600006103515625 100.8 51.840005493164064C 93.80000000000001 59.3280062866211 65.8 59.3280062866211 58.8 51.840005493164064C 44.800000000000004 57.600006103515625 16.8 54.72000579833984 16.8 40.320004272460935Z" stroke="rgba(33,41,48,1)" stroke-width="1.5" fill-opacity="1" fill="#ffffff"></path><g id="SvgjsG1095"><text id="SvgjsText1096" font-family="&quot;Comic Sans MS&quot;" text-anchor="middle" font-size="16px" width="120px" fill="#323232" font-weight="400" align="middle" lineHeight="125%" anchor="middle" family="&quot;Comic Sans MS&quot;" size="16px" weight="400" font-style="" opacity="1" y="14.800003051757812" transform="rotate(0)"><tspan id="SvgjsTspan1097" dy="20" x="70"><tspan id="SvgjsTspan1098" style="text-decoration:;">"(()(", 0, 2</tspan></tspan></text></g></g><g id="SvgjsG1099" transform="translate(406.4999771118164,460.99998474121094)"><path id="SvgjsPath1100" d="M 16.8 40.320004272460935C -14 28.800003051757812 5.6000000000000005 20.160002136230467 12.6 17.280001831054687C 9.8 2.8800003051757814 44.800000000000004 0 58.8 5.760000610351563C 70 -2.8800003051757814 105 0 105 8.640000915527343C 133 5.760000610351563 144.20000000000002 17.280001831054687 133 31.680003356933597C 142.8 43.20000457763672 133 57.600006103515625 100.8 51.840005493164064C 93.80000000000001 59.3280062866211 65.8 59.3280062866211 58.8 51.840005493164064C 44.800000000000004 57.600006103515625 16.8 54.72000579833984 16.8 40.320004272460935Z" stroke="rgba(33,41,48,1)" stroke-width="1.5" fill-opacity="1" fill="#ffffff"></path><g id="SvgjsG1101"><text id="SvgjsText1102" font-family="&quot;Comic Sans MS&quot;" text-anchor="middle" font-size="16px" width="120px" fill="#323232" font-weight="400" align="middle" lineHeight="125%" anchor="middle" family="&quot;Comic Sans MS&quot;" size="16px" weight="400" font-style="" opacity="1" y="14.800003051757812" transform="rotate(0)"><tspan id="SvgjsTspan1103" dy="20" x="70"><tspan id="SvgjsTspan1104" style="text-decoration:;">"(())", 1, 1</tspan></tspan></text></g></g><g id="SvgjsG1105"><path id="SvgjsPath1106" d="M400.6294001398303 419.9358874428666L319.914054210966 460.36675704894185" stroke="#323232" stroke-width="1.5" fill="none" marker-end="url(#SvgjsMarker1107)"></path></g><g id="SvgjsG1109"><path id="SvgjsPath1110" d="M401.9785925354886 419.91933565328645L488.05696158659646 460.4263434914304" stroke="#323232" stroke-width="1.5" fill="none" marker-end="url(#SvgjsMarker1111)"></path></g><g id="SvgjsG1113" transform="translate(555.4999771118164,460.99998474121094)"><path id="SvgjsPath1114" d="M 16.8 40.320004272460935C -14 28.800003051757812 5.6000000000000005 20.160002136230467 12.6 17.280001831054687C 9.8 2.8800003051757814 44.800000000000004 0 58.8 5.760000610351563C 70 -2.8800003051757814 105 0 105 8.640000915527343C 133 5.760000610351563 144.20000000000002 17.280001831054687 133 31.680003356933597C 142.8 43.20000457763672 133 57.600006103515625 100.8 51.840005493164064C 93.80000000000001 59.3280062866211 65.8 59.3280062866211 58.8 51.840005493164064C 44.800000000000004 57.600006103515625 16.8 54.72000579833984 16.8 40.320004272460935Z" stroke="rgba(33,41,48,1)" stroke-width="1.5" fill-opacity="1" fill="#ffffff"></path><g id="SvgjsG1115"><text id="SvgjsText1116" font-family="&quot;Comic Sans MS&quot;" text-anchor="middle" font-size="16px" width="120px" fill="#323232" font-weight="400" align="middle" lineHeight="125%" anchor="middle" family="&quot;Comic Sans MS&quot;" size="16px" weight="400" font-style="" opacity="1" y="14.800003051757812" transform="rotate(0)"><tspan id="SvgjsTspan1117" dy="20" x="70"><tspan id="SvgjsTspan1118" style="text-decoration:;">"()((", 0, 2</tspan></tspan></text></g></g><g id="SvgjsG1119" transform="translate(725.4999771118164,460.99998474121094)"><path id="SvgjsPath1120" d="M 16.8 40.320004272460935C -14 28.800003051757812 5.6000000000000005 20.160002136230467 12.6 17.280001831054687C 9.8 2.8800003051757814 44.800000000000004 0 58.8 5.760000610351563C 70 -2.8800003051757814 105 0 105 8.640000915527343C 133 5.760000610351563 144.20000000000002 17.280001831054687 133 31.680003356933597C 142.8 43.20000457763672 133 57.600006103515625 100.8 51.840005493164064C 93.80000000000001 59.3280062866211 65.8 59.3280062866211 58.8 51.840005493164064C 44.800000000000004 57.600006103515625 16.8 54.72000579833984 16.8 40.320004272460935Z" stroke="rgba(33,41,48,1)" stroke-width="1.5" fill-opacity="1" fill="#ffffff"></path><g id="SvgjsG1121"><text id="SvgjsText1122" font-family="&quot;Comic Sans MS&quot;" text-anchor="middle" font-size="16px" width="120px" fill="#323232" font-weight="400" align="middle" lineHeight="125%" anchor="middle" family="&quot;Comic Sans MS&quot;" size="16px" weight="400" font-style="" opacity="1" y="14.800003051757812" transform="rotate(0)"><tspan id="SvgjsTspan1123" dy="20" x="70"><tspan id="SvgjsTspan1124" style="text-decoration:;">"()()", 1, 1</tspan></tspan></text></g></g><g id="SvgjsG1125"><path id="SvgjsPath1126" d="M726.623330526173 419.92348643687166L641.9359048201322 460.4114006705238" stroke="#323232" stroke-width="1.5" fill="none" marker-end="url(#SvgjsMarker1127)"></path></g><g id="SvgjsG1129"><path id="SvgjsPath1130" d="M727.9679260384612 419.9410835467798L807.0953609758949 460.3480510748544" stroke="#323232" stroke-width="1.5" fill="none" marker-end="url(#SvgjsMarker1131)"></path></g><g id="SvgjsG1133" transform="translate(73.4999771118164,559.9999847412109)"><path id="SvgjsPath1134" d="M 16.8 40.320004272460935C -14 28.800003051757812 5.6000000000000005 20.160002136230467 12.6 17.280001831054687C 9.8 2.8800003051757814 44.800000000000004 0 58.8 5.760000610351563C 70 -2.8800003051757814 105 0 105 8.640000915527343C 133 5.760000610351563 144.20000000000002 17.280001831054687 133 31.680003356933597C 142.8 43.20000457763672 133 57.600006103515625 100.8 51.840005493164064C 93.80000000000001 59.3280062866211 65.8 59.3280062866211 58.8 51.840005493164064C 44.800000000000004 57.600006103515625 16.8 54.72000579833984 16.8 40.320004272460935Z" stroke="rgba(33,41,48,1)" stroke-width="1.5" fill-opacity="1" fill="#ffffff"></path><g id="SvgjsG1135"><text id="SvgjsText1136" font-family="&quot;Comic Sans MS&quot;" text-anchor="middle" font-size="16px" width="120px" fill="#323232" font-weight="400" align="middle" lineHeight="125%" anchor="middle" family="&quot;Comic Sans MS&quot;" size="16px" weight="400" font-style="" opacity="1" y="14.800003051757812" transform="rotate(0)"><tspan id="SvgjsTspan1137" dy="20" x="70"><tspan id="SvgjsTspan1138" style="text-decoration:;">"((())", 0, 1</tspan></tspan></text></g></g><g id="SvgjsG1139"><path id="SvgjsPath1140" d="M158.28568582279502 519.3498546717366L157.55142575229348 557.8764750250101" stroke="#323232" stroke-width="1.5" fill="none" marker-end="url(#SvgjsMarker1141)"></path></g><g id="SvgjsG1143" transform="translate(68.4999771118164,662.9999847412109)"><path id="SvgjsPath1144" d="M 16.8 40.320004272460935C -14 28.800003051757812 5.6000000000000005 20.160002136230467 12.6 17.280001831054687C 9.8 2.8800003051757814 44.800000000000004 0 58.8 5.760000610351563C 70 -2.8800003051757814 105 0 105 8.640000915527343C 133 5.760000610351563 144.20000000000002 17.280001831054687 133 31.680003356933597C 142.8 43.20000457763672 133 57.600006103515625 100.8 51.840005493164064C 93.80000000000001 59.3280062866211 65.8 59.3280062866211 58.8 51.840005493164064C 44.800000000000004 57.600006103515625 16.8 54.72000579833984 16.8 40.320004272460935Z" stroke="rgba(33,41,48,1)" stroke-width="1.5" fill-opacity="1" fill="#ffffff"></path><g id="SvgjsG1145"><text id="SvgjsText1146" font-family="&quot;Comic Sans MS&quot;" text-anchor="middle" font-size="16px" width="120px" fill="#323232" font-weight="400" align="middle" lineHeight="125%" anchor="middle" family="&quot;Comic Sans MS&quot;" size="16px" weight="400" font-style="" opacity="1" y="14.800003051757812" transform="rotate(0)"><tspan id="SvgjsTspan1147" dy="20" x="70"><tspan id="SvgjsTspan1148" style="text-decoration:;">"((()))", 0, 0</tspan></tspan></text></g></g><g id="SvgjsG1149"><path id="SvgjsPath1150" d="M153.28692879818658 618.3498773304772L152.54695104088376 660.8763934535439" stroke="#323232" stroke-width="1.5" fill="none" marker-end="url(#SvgjsMarker1151)"></path></g><g id="SvgjsG1153" transform="translate(228.4999771118164,559.9999847412109)"><path id="SvgjsPath1154" d="M 16.8 40.320004272460935C -14 28.800003051757812 5.6000000000000005 20.160002136230467 12.6 17.280001831054687C 9.8 2.8800003051757814 44.800000000000004 0 58.8 5.760000610351563C 70 -2.8800003051757814 105 0 105 8.640000915527343C 133 5.760000610351563 144.20000000000002 17.280001831054687 133 31.680003356933597C 142.8 43.20000457763672 133 57.600006103515625 100.8 51.840005493164064C 93.80000000000001 59.3280062866211 65.8 59.3280062866211 58.8 51.840005493164064C 44.800000000000004 57.600006103515625 16.8 54.72000579833984 16.8 40.320004272460935Z" stroke="rgba(33,41,48,1)" stroke-width="1.5" fill-opacity="1" fill="#ffffff"></path><g id="SvgjsG1155"><text id="SvgjsText1156" font-family="&quot;Comic Sans MS&quot;" text-anchor="middle" font-size="16px" width="120px" fill="#323232" font-weight="400" align="middle" lineHeight="125%" anchor="middle" family="&quot;Comic Sans MS&quot;" size="16px" weight="400" font-style="" opacity="1" y="14.800003051757812" transform="rotate(0)"><tspan id="SvgjsTspan1157" dy="20" x="70"><tspan id="SvgjsTspan1158" style="text-decoration:;">"(()()", 0, 1</tspan></tspan></text></g></g><g id="SvgjsG1159"><path id="SvgjsPath1160" d="M313.2856858227949 519.3498546717366L312.55142575229354 557.8764750250101" stroke="#323232" stroke-width="1.5" fill="none" marker-end="url(#SvgjsMarker1161)"></path></g><g id="SvgjsG1163" transform="translate(223.4999771118164,662.9999847412109)"><path id="SvgjsPath1164" d="M 16.8 40.320004272460935C -14 28.800003051757812 5.6000000000000005 20.160002136230467 12.6 17.280001831054687C 9.8 2.8800003051757814 44.800000000000004 0 58.8 5.760000610351563C 70 -2.8800003051757814 105 0 105 8.640000915527343C 133 5.760000610351563 144.20000000000002 17.280001831054687 133 31.680003356933597C 142.8 43.20000457763672 133 57.600006103515625 100.8 51.840005493164064C 93.80000000000001 59.3280062866211 65.8 59.3280062866211 58.8 51.840005493164064C 44.800000000000004 57.600006103515625 16.8 54.72000579833984 16.8 40.320004272460935Z" stroke="rgba(33,41,48,1)" stroke-width="1.5" fill-opacity="1" fill="#ffffff"></path><g id="SvgjsG1165"><text id="SvgjsText1166" font-family="&quot;Comic Sans MS&quot;" text-anchor="middle" font-size="16px" width="120px" fill="#323232" font-weight="400" align="middle" lineHeight="125%" anchor="middle" family="&quot;Comic Sans MS&quot;" size="16px" weight="400" font-style="" opacity="1" y="14.800003051757812" transform="rotate(0)"><tspan id="SvgjsTspan1167" dy="20" x="70"><tspan id="SvgjsTspan1168" style="text-decoration:;">"(()())", 0, 0</tspan></tspan></text></g></g><g id="SvgjsG1169"><path id="SvgjsPath1170" d="M308.2869287981865 618.3498773304772L307.54695104088376 660.8763934535439" stroke="#323232" stroke-width="1.5" fill="none" marker-end="url(#SvgjsMarker1171)"></path></g><g id="SvgjsG1173" transform="translate(401.4999771118164,559.9999847412109)"><path id="SvgjsPath1174" d="M 16.8 40.320004272460935C -14 28.800003051757812 5.6000000000000005 20.160002136230467 12.6 17.280001831054687C 9.8 2.8800003051757814 44.800000000000004 0 58.8 5.760000610351563C 70 -2.8800003051757814 105 0 105 8.640000915527343C 133 5.760000610351563 144.20000000000002 17.280001831054687 133 31.680003356933597C 142.8 43.20000457763672 133 57.600006103515625 100.8 51.840005493164064C 93.80000000000001 59.3280062866211 65.8 59.3280062866211 58.8 51.840005493164064C 44.800000000000004 57.600006103515625 16.8 54.72000579833984 16.8 40.320004272460935Z" stroke="rgba(33,41,48,1)" stroke-width="1.5" fill-opacity="1" fill="#ffffff"></path><g id="SvgjsG1175"><text id="SvgjsText1176" font-family="&quot;Comic Sans MS&quot;" text-anchor="middle" font-size="16px" width="120px" fill="#323232" font-weight="400" align="middle" lineHeight="125%" anchor="middle" family="&quot;Comic Sans MS&quot;" size="16px" weight="400" font-style="" opacity="1" y="14.800003051757812" transform="rotate(0)"><tspan id="SvgjsTspan1177" dy="20" x="70"><tspan id="SvgjsTspan1178" style="text-decoration:;">"(())(", 0, 1</tspan></tspan></text></g></g><g id="SvgjsG1179"><path id="SvgjsPath1180" d="M486.2856858227949 519.3498546717366L485.55142575229354 557.8764750250101" stroke="#323232" stroke-width="1.5" fill="none" marker-end="url(#SvgjsMarker1181)"></path></g><g id="SvgjsG1183" transform="translate(396.4999771118164,662.9999847412109)"><path id="SvgjsPath1184" d="M 16.8 40.320004272460935C -14 28.800003051757812 5.6000000000000005 20.160002136230467 12.6 17.280001831054687C 9.8 2.8800003051757814 44.800000000000004 0 58.8 5.760000610351563C 70 -2.8800003051757814 105 0 105 8.640000915527343C 133 5.760000610351563 144.20000000000002 17.280001831054687 133 31.680003356933597C 142.8 43.20000457763672 133 57.600006103515625 100.8 51.840005493164064C 93.80000000000001 59.3280062866211 65.8 59.3280062866211 58.8 51.840005493164064C 44.800000000000004 57.600006103515625 16.8 54.72000579833984 16.8 40.320004272460935Z" stroke="rgba(33,41,48,1)" stroke-width="1.5" fill-opacity="1" fill="#ffffff"></path><g id="SvgjsG1185"><text id="SvgjsText1186" font-family="&quot;Comic Sans MS&quot;" text-anchor="middle" font-size="16px" width="120px" fill="#323232" font-weight="400" align="middle" lineHeight="125%" anchor="middle" family="&quot;Comic Sans MS&quot;" size="16px" weight="400" font-style="" opacity="1" y="14.800003051757812" transform="rotate(0)"><tspan id="SvgjsTspan1187" dy="20" x="70"><tspan id="SvgjsTspan1188" style="text-decoration:;">"(())()", 0, 0</tspan></tspan></text></g></g><g id="SvgjsG1189"><path id="SvgjsPath1190" d="M481.2869287981865 618.3498773304772L480.54695104088376 660.8763934535439" stroke="#323232" stroke-width="1.5" fill="none" marker-end="url(#SvgjsMarker1191)"></path></g><g id="SvgjsG1193" transform="translate(550.9999771118164,561.9999847412109)"><path id="SvgjsPath1194" d="M 16.8 40.320004272460935C -14 28.800003051757812 5.6000000000000005 20.160002136230467 12.6 17.280001831054687C 9.8 2.8800003051757814 44.800000000000004 0 58.8 5.760000610351563C 70 -2.8800003051757814 105 0 105 8.640000915527343C 133 5.760000610351563 144.20000000000002 17.280001831054687 133 31.680003356933597C 142.8 43.20000457763672 133 57.600006103515625 100.8 51.840005493164064C 93.80000000000001 59.3280062866211 65.8 59.3280062866211 58.8 51.840005493164064C 44.800000000000004 57.600006103515625 16.8 54.72000579833984 16.8 40.320004272460935Z" stroke="rgba(33,41,48,1)" stroke-width="1.5" fill-opacity="1" fill="#ffffff"></path><g id="SvgjsG1195"><text id="SvgjsText1196" font-family="&quot;Comic Sans MS&quot;" text-anchor="middle" font-size="16px" width="120px" fill="#323232" font-weight="400" align="middle" lineHeight="125%" anchor="middle" family="&quot;Comic Sans MS&quot;" size="16px" weight="400" font-style="" opacity="1" y="14.800003051757812" transform="rotate(0)"><tspan id="SvgjsTspan1197" dy="20" x="70"><tspan id="SvgjsTspan1198" style="text-decoration:;">"()(()", 0, 1</tspan></tspan></text></g></g><g id="SvgjsG1199" transform="translate(546.9999771118164,662.9999847412109)"><path id="SvgjsPath1200" d="M 16.8 40.320004272460935C -14 28.800003051757812 5.6000000000000005 20.160002136230467 12.6 17.280001831054687C 9.8 2.8800003051757814 44.800000000000004 0 58.8 5.760000610351563C 70 -2.8800003051757814 105 0 105 8.640000915527343C 133 5.760000610351563 144.20000000000002 17.280001831054687 133 31.680003356933597C 142.8 43.20000457763672 133 57.600006103515625 100.8 51.840005493164064C 93.80000000000001 59.3280062866211 65.8 59.3280062866211 58.8 51.840005493164064C 44.800000000000004 57.600006103515625 16.8 54.72000579833984 16.8 40.320004272460935Z" stroke="rgba(33,41,48,1)" stroke-width="1.5" fill-opacity="1" fill="#ffffff"></path><g id="SvgjsG1201"><text id="SvgjsText1202" font-family="&quot;Comic Sans MS&quot;" text-anchor="middle" font-size="16px" width="120px" fill="#323232" font-weight="400" align="middle" lineHeight="125%" anchor="middle" family="&quot;Comic Sans MS&quot;" size="16px" weight="400" font-style="" opacity="1" y="14.800003051757812" transform="rotate(0)"><tspan id="SvgjsTspan1203" dy="20" x="70"><tspan id="SvgjsTspan1204" style="text-decoration:;">"()(())", 0, 0</tspan></tspan></text></g></g><g id="SvgjsG1205"><path id="SvgjsPath1206" d="M635.2948608030222 519.3499733934464L635.0183958234753 559.8760476268546" stroke="#323232" stroke-width="1.5" fill="none" marker-end="url(#SvgjsMarker1207)"></path></g><g id="SvgjsG1209"><path id="SvgjsPath1210" d="M630.803388028438 620.3499830884516L630.9876978119784 660.8760127248358" stroke="#323232" stroke-width="1.5" fill="none" marker-end="url(#SvgjsMarker1211)"></path></g><g id="SvgjsG1213" transform="translate(721.4999771118164,561.9999847412109)"><path id="SvgjsPath1214" d="M 16.8 40.320004272460935C -14 28.800003051757812 5.6000000000000005 20.160002136230467 12.6 17.280001831054687C 9.8 2.8800003051757814 44.800000000000004 0 58.8 5.760000610351563C 70 -2.8800003051757814 105 0 105 8.640000915527343C 133 5.760000610351563 144.20000000000002 17.280001831054687 133 31.680003356933597C 142.8 43.20000457763672 133 57.600006103515625 100.8 51.840005493164064C 93.80000000000001 59.3280062866211 65.8 59.3280062866211 58.8 51.840005493164064C 44.800000000000004 57.600006103515625 16.8 54.72000579833984 16.8 40.320004272460935Z" stroke="rgba(33,41,48,1)" stroke-width="1.5" fill-opacity="1" fill="#ffffff"></path><g id="SvgjsG1215"><text id="SvgjsText1216" font-family="&quot;Comic Sans MS&quot;" text-anchor="middle" font-size="16px" width="120px" fill="#323232" font-weight="400" align="middle" lineHeight="125%" anchor="middle" family="&quot;Comic Sans MS&quot;" size="16px" weight="400" font-style="" opacity="1" y="14.800003051757812" transform="rotate(0)"><tspan id="SvgjsTspan1217" dy="20" x="70"><tspan id="SvgjsTspan1218" style="text-decoration:;">"()()(", 0, 1</tspan></tspan></text></g></g><g id="SvgjsG1219"><path id="SvgjsPath1220" d="M805.3033880284381 519.3499830884516L805.4876978119783 559.8760127248358" stroke="#323232" stroke-width="1.5" fill="none" marker-end="url(#SvgjsMarker1221)"></path></g><g id="SvgjsG1223" transform="translate(717.4999771118164,667.9999847412109)"><path id="SvgjsPath1224" d="M 16.8 40.320004272460935C -14 28.800003051757812 5.6000000000000005 20.160002136230467 12.6 17.280001831054687C 9.8 2.8800003051757814 44.800000000000004 0 58.8 5.760000610351563C 70 -2.8800003051757814 105 0 105 8.640000915527343C 133 5.760000610351563 144.20000000000002 17.280001831054687 133 31.680003356933597C 142.8 43.20000457763672 133 57.600006103515625 100.8 51.840005493164064C 93.80000000000001 59.3280062866211 65.8 59.3280062866211 58.8 51.840005493164064C 44.800000000000004 57.600006103515625 16.8 54.72000579833984 16.8 40.320004272460935Z" stroke="rgba(33,41,48,1)" stroke-width="1.5" fill-opacity="1" fill="#ffffff"></path><g id="SvgjsG1225"><text id="SvgjsText1226" font-family="&quot;Comic Sans MS&quot;" text-anchor="middle" font-size="16px" width="120px" fill="#323232" font-weight="400" align="middle" lineHeight="125%" anchor="middle" family="&quot;Comic Sans MS&quot;" size="16px" weight="400" font-style="" opacity="1" y="14.800003051757812" transform="rotate(0)"><tspan id="SvgjsTspan1227" dy="20" x="70"><tspan id="SvgjsTspan1228" style="text-decoration:;">"()()()", 0, 0</tspan></tspan></text></g></g><g id="SvgjsG1229"><path id="SvgjsPath1230" d="M801.3030398112573 620.3499845912819L801.4889513938292 665.8760073146468" stroke="#323232" stroke-width="1.5" fill="none" marker-end="url(#SvgjsMarker1231)"></path></g><g id="SvgjsG1233" transform="translate(24.999977111816406,64.99999237060547)"><path id="SvgjsPath1234" d="M 30.84 68.03999252319335C -25.700000000000003 48.59999465942383 10.28 34.019996261596674 23.13 29.159996795654294C 17.990000000000002 4.8599994659423835 82.24 0 107.94 9.719998931884767C 128.5 -4.8599994659423835 192.75 0 192.75 14.579998397827147C 244.14999999999998 9.719998931884767 264.71 29.159996795654294 244.14999999999998 53.459994125366215C 262.14 72.89999198913574 244.14999999999998 97.19998931884766 185.04 87.4799903869629C 172.19 100.11598899841309 120.78999999999999 100.11598899841309 107.94 87.4799903869629C 82.24 97.19998931884766 30.84 92.33998985290526 30.84 68.03999252319335Z" stroke="rgba(33,41,48,1)" stroke-width="1.5" fill-opacity="1" fill="#ffffff"></path><g id="SvgjsG1235"><text id="SvgjsText1236" font-family="&quot;Comic Sans MS&quot;" text-anchor="middle" font-size="16px" width="237px" fill="#323232" font-weight="400" align="middle" lineHeight="125%" anchor="middle" family="&quot;Comic Sans MS&quot;" size="16px" weight="400" font-style="" opacity="1" y="34.59999465942383" transform="rotate(0)"><tspan id="SvgjsTspan1237" dy="20" x="128.5"><tspan id="SvgjsTspan1238" style="text-decoration:;">done: str, left: int, right: int</tspan></tspan></text></g></g></svg>